<svg width="106" height="89" viewBox="0 0 106 89" fill="none" xmlns="http://www.w3.org/2000/svg">
<g clip-path="url(#clip0_17_227)">
<path d="M57.1769 51.6C55.7088 51.6 54.5186 50.406 54.5186 48.9333V43.0957C54.5186 42.308 54.8658 41.5607 55.4669 41.054L93.8831 8.67167H57.1769C55.7088 8.67167 54.5186 7.47777 54.5186 6.005V2.66667C54.5186 1.19391 55.7088 0 57.1769 0H103.298C104.767 0 105.957 1.19391 105.957 2.66667V8.5043C105.957 9.2919 105.61 10.0392 105.009 10.5459L66.5923 42.9283H103.298C104.767 42.9283 105.957 44.1223 105.957 45.595V48.9333C105.957 50.406 104.767 51.6 103.298 51.6H57.1769Z" fill="#0077FF"/>
<path d="M2.97959 51.6C1.51145 51.6 0.321289 50.406 0.321289 48.9333V2.66667C0.321289 1.19391 1.51145 0 2.9796 0H44.8862C46.3542 0 47.5445 1.19391 47.5445 2.66667V6.005C47.5445 7.47777 46.3542 8.67167 44.8862 8.67167H8.96576V21.5H37.3848C38.8528 21.5 40.0431 22.6939 40.0431 24.1667V27.4333C40.0431 28.9061 38.8528 30.1 37.3848 30.1H8.96576V42.9283H44.8862C46.3542 42.9283 47.5445 44.1223 47.5445 45.595V48.9333C47.5445 50.406 46.3542 51.6 44.8862 51.6H2.97959Z" fill="#0077FF"/>
<path d="M100.68 88.9337C100.089 88.9337 99.5298 88.6714 99.151 88.2174L89.9081 77.1417H96.8988L105.545 87.427C105.683 87.5924 105.76 87.8017 105.76 88.0177C105.76 88.5237 105.351 88.9337 104.846 88.9337H100.68ZM75.8277 88.9337C74.7268 88.9337 73.834 88.0384 73.834 86.9337V58.8184C73.834 57.7137 74.7268 56.8184 75.8277 56.8184H99.8821C100.981 56.8184 101.975 57.1014 102.865 57.667C103.786 58.203 104.513 58.9327 105.047 59.8557C105.611 60.749 105.893 61.7467 105.893 62.8484V71.6924C105.893 72.7644 105.611 73.762 105.047 74.685C104.513 75.608 103.786 76.3377 102.865 76.8737C101.975 77.4097 100.981 77.6777 99.8821 77.6777L79.1772 77.7224V86.9337C79.1772 88.0384 78.2847 88.9337 77.1835 88.9337H75.8277ZM79.9787 72.273H99.704C99.912 72.273 100.09 72.1987 100.238 72.0497C100.416 71.9007 100.505 71.7074 100.505 71.469V62.9824C100.505 62.774 100.416 62.5954 100.238 62.4464C100.09 62.2677 99.912 62.1784 99.704 62.1784H79.9787C79.771 62.1784 79.5779 62.2677 79.3998 62.4464C79.2516 62.5954 79.1772 62.774 79.1772 62.9824V71.469C79.1772 71.7074 79.2516 71.9007 79.3998 72.0497C79.5779 72.1987 79.771 72.273 79.9787 72.273Z" fill="white"/>
<path d="M38.6959 88.9334C37.5947 88.9334 36.7021 88.0381 36.7021 86.9334V62.8034C36.7021 61.7018 36.9693 60.6891 37.5036 59.7661C38.0379 58.8431 38.765 58.1134 39.6854 57.5774C40.6055 57.0414 41.6147 56.7734 42.7132 56.7734H62.7502C63.8484 56.7734 64.843 57.0414 65.7335 57.5774C66.6536 58.1134 67.381 58.8431 67.9153 59.7661C68.4792 60.6891 68.7613 61.7018 68.7613 62.8034V86.9334C68.7613 88.0381 67.8685 88.9334 66.7676 88.9334H65.3673C64.2661 88.9334 63.3736 88.0381 63.3736 86.9334V77.9008H42.0453V86.9334C42.0453 88.0381 41.1525 88.9334 40.0516 88.9334H38.6959ZM42.0453 72.5408H63.3736V62.9821C63.3736 62.7438 63.2846 62.5504 63.1064 62.4014C62.9579 62.2524 62.7798 62.1781 62.5721 62.1781H42.8468C42.6388 62.1781 42.4461 62.2524 42.268 62.4014C42.1194 62.5504 42.0453 62.7438 42.0453 62.9821V72.5408Z" fill="white"/>
<path d="M6.0111 88.9334C4.91278 88.9334 3.90349 88.6654 2.98329 88.1294C2.06307 87.5934 1.3358 86.8638 0.80148 85.9408C0.26716 85.0178 0 84.0051 0 82.9034V62.8034C0 61.7018 0.26716 60.6891 0.80148 59.7661C1.3358 58.8431 2.06307 58.1134 2.98329 57.5774C3.90349 57.0414 4.91278 56.7734 6.0111 56.7734H29.9764C31.0775 56.7734 31.9701 57.6688 31.9701 58.7734V60.1781C31.9701 61.2828 31.0775 62.1781 29.9764 62.1781H6.94616C6.47122 62.1781 6.0853 62.3271 5.78846 62.6248C5.49163 62.8928 5.3432 63.2651 5.3432 63.7414V81.9654C5.3432 82.4418 5.49163 82.8291 5.78846 83.1268C6.0853 83.3948 6.47122 83.5288 6.94616 83.5288H29.9764C31.0775 83.5288 31.9701 84.4241 31.9701 85.5288V86.9334C31.9701 88.0381 31.0775 88.9334 29.9764 88.9334H6.0111Z" fill="white"/>
</g>
<defs>
<clipPath id="clip0_17_227">
<rect width="106" height="89" fill="white"/>
</clipPath>
</defs>
</svg>
